<svg width="48" height="48" viewBox="0 0 48 48" fill="none" xmlns="http://www.w3.org/2000/svg">
<g clip-path="url(#clip0_4_172)">
<g style="mix-blend-mode:lighten">
<circle cx="13" cy="17" r="10" fill="#006BCD"/>
</g>
<g style="mix-blend-mode:lighten">
<circle cx="35" cy="38" r="10" fill="#006BCD"/>
</g>
<mask id="path-3-outside-1_4_172" maskUnits="userSpaceOnUse" x="0.864807" y="-1.07489" width="46" height="50" fill="black">
<rect fill="white" x="0.864807" y="-1.07489" width="46" height="50"/>
<path d="M46.1352 11.2833L45.4152 10.0363L42.2942 11.8382L37.1366 2.90495L40.1381 1.17215L39.4181 -0.0748901L35.1696 2.37791L36.0312 3.86975C35.3424 3.91823 34.7218 3.94607 34.1515 3.94607C32.4418 3.94607 31.081 3.69695 28.8514 3.17519C28.5984 3.11567 28.3397 3.08543 28.0829 3.08543C25.8629 3.08543 24.3782 5.22623 23.843 6.14687C22.8168 7.91135 22.489 8.48399 22.1621 9.05519C21.8755 9.55535 21.5899 10.0545 20.833 11.3573L19.7842 10.7352L13.0214 20.9491H8.41153L1.87057 26.0635L1.87201 26.0654H1.86481V31.9152H4.51825V48.0749H5.95825V31.9152H33.4085V48.0749H34.8485V31.9152H37.5043V26.0654H37.4976L37.5048 26.0558L30.9341 20.9491H29.8402L31.7659 17.8392L30.2578 16.9454L30.337 16.9137C31.224 16.5542 32.041 16.4357 32.9774 16.5221C33.1541 16.5379 33.3341 16.5465 33.517 16.5465C34.837 16.5465 36.1008 16.103 36.984 15.3297C37.2254 15.119 37.4438 14.9544 37.7141 14.7806L41.0808 12.6153L41.7682 13.8057L46.1352 11.2833ZM36.0643 30.4752H3.30481V27.5049H36.0643V30.4752ZM30.4402 22.3891L35.1696 26.0654H4.20625L8.90737 22.3891H12.0682L11.4288 23.3549H9.96049V24.7949H29.4082V23.3549H28.3507L28.9488 22.3891H30.4402ZM29.7691 18.3293L26.6971 23.2896L13.2048 23.2805L20.2296 12.6729L21.0821 13.1789L22.3718 14.0577C21.4464 14.8435 21.0816 16.1645 21.5616 17.3491C22.0061 18.4454 23.0602 19.1539 24.2472 19.1539C24.6182 19.1539 24.9816 19.0833 25.3272 18.9432L28.5806 17.6246L29.7691 18.3293ZM36.9346 13.5686C36.6019 13.7827 36.3331 13.9848 36.0355 14.2449C35.411 14.7921 34.4928 15.1056 33.517 15.1056C33.3782 15.1056 33.2414 15.0989 33.1075 15.0869C31.9243 14.9793 30.899 15.1315 29.796 15.5784L24.7862 17.6083C24.0634 17.9001 23.185 17.5205 22.896 16.8081C22.5955 16.0665 22.9546 15.2189 23.6957 14.9179L25.6075 14.1422L30.4574 11.9213C30.6475 11.8344 30.7901 11.6693 30.8486 11.4682C30.9067 11.2675 30.8755 11.0515 30.7613 10.8758L30.625 10.6656C30.1733 9.96527 29.4667 9.53951 28.6368 9.46799C28.5538 9.46031 28.4712 9.45743 28.3901 9.45743C27.647 9.45743 26.9832 9.74975 26.4706 10.3032C26.0203 10.7885 25.62 11.4979 25.2984 12.0686C25.1477 12.336 24.9917 12.611 24.8842 12.7656C24.6677 12.8952 24.0883 13.1563 23.7672 13.2672L22.0637 12.1061C22.8336 10.7798 23.1221 10.2763 23.412 9.77183C23.7379 9.20207 24.0648 8.63135 25.0882 6.87167C25.9416 5.40287 27.0614 4.52639 28.0829 4.52639C28.2293 4.52639 28.3766 4.54367 28.5226 4.57727C30.8126 5.11391 32.3117 5.38703 34.1515 5.38703C34.9454 5.38703 35.8272 5.33471 36.829 5.25311L40.3589 11.3664L36.9346 13.5686ZM27.0768 11.8867C27.2256 11.6553 27.3782 11.4422 27.527 11.2814C27.7637 11.0266 28.0546 10.8969 28.391 10.8969C28.4309 10.8969 28.4712 10.8984 28.5125 10.9022C28.6766 10.9166 28.8254 10.9574 28.9589 11.0246L27.0768 11.8867Z"/>
</mask>
<path d="M46.1352 11.2833L45.4152 10.0363L42.2942 11.8382L37.1366 2.90495L40.1381 1.17215L39.4181 -0.0748901L35.1696 2.37791L36.0312 3.86975C35.3424 3.91823 34.7218 3.94607 34.1515 3.94607C32.4418 3.94607 31.081 3.69695 28.8514 3.17519C28.5984 3.11567 28.3397 3.08543 28.0829 3.08543C25.8629 3.08543 24.3782 5.22623 23.843 6.14687C22.8168 7.91135 22.489 8.48399 22.1621 9.05519C21.8755 9.55535 21.5899 10.0545 20.833 11.3573L19.7842 10.7352L13.0214 20.9491H8.41153L1.87057 26.0635L1.87201 26.0654H1.86481V31.9152H4.51825V48.0749H5.95825V31.9152H33.4085V48.0749H34.8485V31.9152H37.5043V26.0654H37.4976L37.5048 26.0558L30.9341 20.9491H29.8402L31.7659 17.8392L30.2578 16.9454L30.337 16.9137C31.224 16.5542 32.041 16.4357 32.9774 16.5221C33.1541 16.5379 33.3341 16.5465 33.517 16.5465C34.837 16.5465 36.1008 16.103 36.984 15.3297C37.2254 15.119 37.4438 14.9544 37.7141 14.7806L41.0808 12.6153L41.7682 13.8057L46.1352 11.2833ZM36.0643 30.4752H3.30481V27.5049H36.0643V30.4752ZM30.4402 22.3891L35.1696 26.0654H4.20625L8.90737 22.3891H12.0682L11.4288 23.3549H9.96049V24.7949H29.4082V23.3549H28.3507L28.9488 22.3891H30.4402ZM29.7691 18.3293L26.6971 23.2896L13.2048 23.2805L20.2296 12.6729L21.0821 13.1789L22.3718 14.0577C21.4464 14.8435 21.0816 16.1645 21.5616 17.3491C22.0061 18.4454 23.0602 19.1539 24.2472 19.1539C24.6182 19.1539 24.9816 19.0833 25.3272 18.9432L28.5806 17.6246L29.7691 18.3293ZM36.9346 13.5686C36.6019 13.7827 36.3331 13.9848 36.0355 14.2449C35.411 14.7921 34.4928 15.1056 33.517 15.1056C33.3782 15.1056 33.2414 15.0989 33.1075 15.0869C31.9243 14.9793 30.899 15.1315 29.796 15.5784L24.7862 17.6083C24.0634 17.9001 23.185 17.5205 22.896 16.8081C22.5955 16.0665 22.9546 15.2189 23.6957 14.9179L25.6075 14.1422L30.4574 11.9213C30.6475 11.8344 30.7901 11.6693 30.8486 11.4682C30.9067 11.2675 30.8755 11.0515 30.7613 10.8758L30.625 10.6656C30.1733 9.96527 29.4667 9.53951 28.6368 9.46799C28.5538 9.46031 28.4712 9.45743 28.3901 9.45743C27.647 9.45743 26.9832 9.74975 26.4706 10.3032C26.0203 10.7885 25.62 11.4979 25.2984 12.0686C25.1477 12.336 24.9917 12.611 24.8842 12.7656C24.6677 12.8952 24.0883 13.1563 23.7672 13.2672L22.0637 12.1061C22.8336 10.7798 23.1221 10.2763 23.412 9.77183C23.7379 9.20207 24.0648 8.63135 25.0882 6.87167C25.9416 5.40287 27.0614 4.52639 28.0829 4.52639C28.2293 4.52639 28.3766 4.54367 28.5226 4.57727C30.8126 5.11391 32.3117 5.38703 34.1515 5.38703C34.9454 5.38703 35.8272 5.33471 36.829 5.25311L40.3589 11.3664L36.9346 13.5686ZM27.0768 11.8867C27.2256 11.6553 27.3782 11.4422 27.527 11.2814C27.7637 11.0266 28.0546 10.8969 28.391 10.8969C28.4309 10.8969 28.4712 10.8984 28.5125 10.9022C28.6766 10.9166 28.8254 10.9574 28.9589 11.0246L27.0768 11.8867Z" fill="#FCFCFC"/>
<path d="M46.1352 11.2833L45.4152 10.0363L42.2942 11.8382L37.1366 2.90495L40.1381 1.17215L39.4181 -0.0748901L35.1696 2.37791L36.0312 3.86975C35.3424 3.91823 34.7218 3.94607 34.1515 3.94607C32.4418 3.94607 31.081 3.69695 28.8514 3.17519C28.5984 3.11567 28.3397 3.08543 28.0829 3.08543C25.8629 3.08543 24.3782 5.22623 23.843 6.14687C22.8168 7.91135 22.489 8.48399 22.1621 9.05519C21.8755 9.55535 21.5899 10.0545 20.833 11.3573L19.7842 10.7352L13.0214 20.9491H8.41153L1.87057 26.0635L1.87201 26.0654H1.86481V31.9152H4.51825V48.0749H5.95825V31.9152H33.4085V48.0749H34.8485V31.9152H37.5043V26.0654H37.4976L37.5048 26.0558L30.9341 20.9491H29.8402L31.7659 17.8392L30.2578 16.9454L30.337 16.9137C31.224 16.5542 32.041 16.4357 32.9774 16.5221C33.1541 16.5379 33.3341 16.5465 33.517 16.5465C34.837 16.5465 36.1008 16.103 36.984 15.3297C37.2254 15.119 37.4438 14.9544 37.7141 14.7806L41.0808 12.6153L41.7682 13.8057L46.1352 11.2833ZM36.0643 30.4752H3.30481V27.5049H36.0643V30.4752ZM30.4402 22.3891L35.1696 26.0654H4.20625L8.90737 22.3891H12.0682L11.4288 23.3549H9.96049V24.7949H29.4082V23.3549H28.3507L28.9488 22.3891H30.4402ZM29.7691 18.3293L26.6971 23.2896L13.2048 23.2805L20.2296 12.6729L21.0821 13.1789L22.3718 14.0577C21.4464 14.8435 21.0816 16.1645 21.5616 17.3491C22.0061 18.4454 23.0602 19.1539 24.2472 19.1539C24.6182 19.1539 24.9816 19.0833 25.3272 18.9432L28.5806 17.6246L29.7691 18.3293ZM36.9346 13.5686C36.6019 13.7827 36.3331 13.9848 36.0355 14.2449C35.411 14.7921 34.4928 15.1056 33.517 15.1056C33.3782 15.1056 33.2414 15.0989 33.1075 15.0869C31.9243 14.9793 30.899 15.1315 29.796 15.5784L24.7862 17.6083C24.0634 17.9001 23.185 17.5205 22.896 16.8081C22.5955 16.0665 22.9546 15.2189 23.6957 14.9179L25.6075 14.1422L30.4574 11.9213C30.6475 11.8344 30.7901 11.6693 30.8486 11.4682C30.9067 11.2675 30.8755 11.0515 30.7613 10.8758L30.625 10.6656C30.1733 9.96527 29.4667 9.53951 28.6368 9.46799C28.5538 9.46031 28.4712 9.45743 28.3901 9.45743C27.647 9.45743 26.9832 9.74975 26.4706 10.3032C26.0203 10.7885 25.62 11.4979 25.2984 12.0686C25.1477 12.336 24.9917 12.611 24.8842 12.7656C24.6677 12.8952 24.0883 13.1563 23.7672 13.2672L22.0637 12.1061C22.8336 10.7798 23.1221 10.2763 23.412 9.77183C23.7379 9.20207 24.0648 8.63135 25.0882 6.87167C25.9416 5.40287 27.0614 4.52639 28.0829 4.52639C28.2293 4.52639 28.3766 4.54367 28.5226 4.57727C30.8126 5.11391 32.3117 5.38703 34.1515 5.38703C34.9454 5.38703 35.8272 5.33471 36.829 5.25311L40.3589 11.3664L36.9346 13.5686ZM27.0768 11.8867C27.2256 11.6553 27.3782 11.4422 27.527 11.2814C27.7637 11.0266 28.0546 10.8969 28.391 10.8969C28.4309 10.8969 28.4712 10.8984 28.5125 10.9022C28.6766 10.9166 28.8254 10.9574 28.9589 11.0246L27.0768 11.8867Z" stroke="#FCFCFC" mask="url(#path-3-outside-1_4_172)"/>
</g>
<defs>
<clipPath id="clip0_4_172">
<rect width="48" height="48" fill="white"/>
</clipPath>
</defs>
</svg>
